<mxfile host="app.diagrams.net" modified="2023-04-24T19:35:44.366Z" agent="Mozilla/5.0 (Windows NT 10.0; Win64; x64) AppleWebKit/537.36 (KHTML, like Gecko) Chrome/112.0.0.0 Safari/537.36" etag="absY_YzXnB7MiwL6UWY7" version="21.2.1" type="device">
  <diagram name="Page-1" id="9Ys2F5K6Yu5i55ujjXcN">
    <mxGraphModel dx="1728" dy="930" grid="1" gridSize="10" guides="1" tooltips="1" connect="1" arrows="1" fold="1" page="1" pageScale="1" pageWidth="827" pageHeight="1169" math="0" shadow="0">
      <root>
        <mxCell id="0" />
        <mxCell id="1" parent="0" />
        <mxCell id="IJeZ8tViUeQ1nA_x8BDN-12" style="edgeStyle=orthogonalEdgeStyle;rounded=0;orthogonalLoop=1;jettySize=auto;html=1;entryX=0.343;entryY=0.083;entryDx=0;entryDy=0;entryPerimeter=0;" parent="1" source="IJeZ8tViUeQ1nA_x8BDN-6" target="K13fG8NS06_dGH0W_SFT-2" edge="1">
          <mxGeometry relative="1" as="geometry" />
        </mxCell>
        <mxCell id="IJeZ8tViUeQ1nA_x8BDN-13" value="URL (e.g.wipro-fs23-mpullen.el.eee.intern)" style="edgeLabel;html=1;align=center;verticalAlign=middle;resizable=0;points=[];" parent="IJeZ8tViUeQ1nA_x8BDN-12" vertex="1" connectable="0">
          <mxGeometry x="-0.1946" relative="1" as="geometry">
            <mxPoint x="1" y="7" as="offset" />
          </mxGeometry>
        </mxCell>
        <mxCell id="IJeZ8tViUeQ1nA_x8BDN-6" value="Poseify User" style="points=[[0.35,0,0],[0.98,0.51,0],[1,0.71,0],[0.67,1,0],[0,0.795,0],[0,0.65,0]];verticalLabelPosition=bottom;sketch=0;html=1;verticalAlign=top;aspect=fixed;align=center;pointerEvents=1;shape=mxgraph.cisco19.user;fillColor=#330066;strokeColor=none;" parent="1" vertex="1">
          <mxGeometry x="376" y="80" width="75" height="75" as="geometry" />
        </mxCell>
        <mxCell id="IJeZ8tViUeQ1nA_x8BDN-7" value="&lt;font style=&quot;font-size: 9px;&quot;&gt;Node JS / &lt;b&gt;ClientApp&lt;/b&gt;&lt;/font&gt;" style="sketch=0;aspect=fixed;pointerEvents=1;shadow=0;dashed=0;html=1;strokeColor=none;labelPosition=center;verticalLabelPosition=bottom;verticalAlign=top;align=center;fillColor=#330066;shape=mxgraph.mscae.enterprise.application_server" parent="1" vertex="1">
          <mxGeometry x="264.5" y="320" width="43" height="50" as="geometry" />
        </mxCell>
        <mxCell id="IJeZ8tViUeQ1nA_x8BDN-10" style="edgeStyle=orthogonalEdgeStyle;rounded=0;orthogonalLoop=1;jettySize=auto;html=1;exitX=1;exitY=0.5;exitDx=0;exitDy=0;entryX=0;entryY=0.5;entryDx=0;entryDy=0;entryPerimeter=0;strokeColor=default;dashed=1;endArrow=none;endFill=0;" parent="1" source="IJeZ8tViUeQ1nA_x8BDN-9" target="IJeZ8tViUeQ1nA_x8BDN-7" edge="1">
          <mxGeometry relative="1" as="geometry" />
        </mxCell>
        <mxCell id="IJeZ8tViUeQ1nA_x8BDN-9" value="&lt;h1&gt;NodeJS&lt;/h1&gt;&lt;p&gt;JS Server that serves static pages create with React-JS. Uses REST-Api to get data from the C# Backend via BFF&lt;/p&gt;" style="text;html=1;strokeColor=none;fillColor=none;spacing=5;spacingTop=-20;whiteSpace=wrap;overflow=hidden;rounded=0;" parent="1" vertex="1">
          <mxGeometry x="5.5" y="380" width="190" height="120" as="geometry" />
        </mxCell>
        <mxCell id="IJeZ8tViUeQ1nA_x8BDN-27" style="edgeStyle=orthogonalEdgeStyle;rounded=0;orthogonalLoop=1;jettySize=auto;html=1;entryX=0.371;entryY=-0.01;entryDx=0;entryDy=0;entryPerimeter=0;" parent="1" target="IJeZ8tViUeQ1nA_x8BDN-16" edge="1">
          <mxGeometry relative="1" as="geometry">
            <mxPoint x="420" y="400" as="sourcePoint" />
            <Array as="points">
              <mxPoint x="417" y="400" />
              <mxPoint x="417" y="620" />
              <mxPoint x="417" y="620" />
            </Array>
          </mxGeometry>
        </mxCell>
        <mxCell id="IJeZ8tViUeQ1nA_x8BDN-28" value="HTTP PUT / DELETE / GET / POST" style="edgeLabel;html=1;align=center;verticalAlign=middle;resizable=0;points=[];" parent="IJeZ8tViUeQ1nA_x8BDN-27" vertex="1" connectable="0">
          <mxGeometry x="-0.1845" relative="1" as="geometry">
            <mxPoint x="2" y="66" as="offset" />
          </mxGeometry>
        </mxCell>
        <mxCell id="K13fG8NS06_dGH0W_SFT-5" style="edgeStyle=orthogonalEdgeStyle;rounded=0;orthogonalLoop=1;jettySize=auto;html=1;" edge="1" parent="1" source="IJeZ8tViUeQ1nA_x8BDN-11" target="K13fG8NS06_dGH0W_SFT-2">
          <mxGeometry relative="1" as="geometry">
            <Array as="points">
              <mxPoint x="330" y="395" />
              <mxPoint x="330" y="350" />
            </Array>
          </mxGeometry>
        </mxCell>
        <mxCell id="IJeZ8tViUeQ1nA_x8BDN-11" value="&lt;font style=&quot;font-size: 9px;&quot;&gt;api.ts&lt;/font&gt;" style="text;html=1;strokeColor=none;fillColor=none;align=center;verticalAlign=middle;whiteSpace=wrap;rounded=0;" parent="1" vertex="1">
          <mxGeometry x="256" y="390" width="60" height="20" as="geometry" />
        </mxCell>
        <mxCell id="IJeZ8tViUeQ1nA_x8BDN-15" style="edgeStyle=orthogonalEdgeStyle;rounded=0;orthogonalLoop=1;jettySize=auto;html=1;endArrow=none;endFill=0;dashed=1;entryX=-0.055;entryY=0.414;entryDx=0;entryDy=0;entryPerimeter=0;" parent="1" source="IJeZ8tViUeQ1nA_x8BDN-14" target="IJeZ8tViUeQ1nA_x8BDN-7" edge="1">
          <mxGeometry relative="1" as="geometry" />
        </mxCell>
        <mxCell id="IJeZ8tViUeQ1nA_x8BDN-14" value="&lt;h1&gt;api.ts&lt;/h1&gt;&lt;p&gt;Typescript file that manages API calls to our backend. Avoid using fetches directly in a seperate file. Using methods in this ts file ensures consistent error handeling.&lt;/p&gt;" style="text;html=1;strokeColor=none;fillColor=none;spacing=5;spacingTop=-20;whiteSpace=wrap;overflow=hidden;rounded=0;" parent="1" vertex="1">
          <mxGeometry x="4.5" y="240" width="190" height="120" as="geometry" />
        </mxCell>
        <mxCell id="IJeZ8tViUeQ1nA_x8BDN-23" style="edgeStyle=orthogonalEdgeStyle;rounded=0;orthogonalLoop=1;jettySize=auto;html=1;exitX=0.5;exitY=1;exitDx=0;exitDy=0;exitPerimeter=0;entryX=0;entryY=0.5;entryDx=0;entryDy=0;" parent="1" source="IJeZ8tViUeQ1nA_x8BDN-16" target="IJeZ8tViUeQ1nA_x8BDN-22" edge="1">
          <mxGeometry relative="1" as="geometry" />
        </mxCell>
        <mxCell id="IJeZ8tViUeQ1nA_x8BDN-26" value="Prepares and starts scripts" style="edgeLabel;html=1;align=center;verticalAlign=middle;resizable=0;points=[];" parent="IJeZ8tViUeQ1nA_x8BDN-23" vertex="1" connectable="0">
          <mxGeometry x="-0.4651" relative="1" as="geometry">
            <mxPoint y="-3" as="offset" />
          </mxGeometry>
        </mxCell>
        <mxCell id="IJeZ8tViUeQ1nA_x8BDN-16" value=".NET 7 / &lt;b&gt;Core&lt;/b&gt;" style="sketch=0;aspect=fixed;pointerEvents=1;shadow=0;dashed=0;html=1;strokeColor=none;labelPosition=center;verticalLabelPosition=bottom;verticalAlign=top;align=center;fillColor=#330066;shape=mxgraph.mscae.enterprise.database_server" parent="1" vertex="1">
          <mxGeometry x="402.5" y="625" width="38" height="50" as="geometry" />
        </mxCell>
        <mxCell id="IJeZ8tViUeQ1nA_x8BDN-19" style="edgeStyle=orthogonalEdgeStyle;rounded=0;orthogonalLoop=1;jettySize=auto;html=1;entryX=1;entryY=0.5;entryDx=0;entryDy=0;entryPerimeter=0;endArrow=none;endFill=0;dashed=1;" parent="1" source="IJeZ8tViUeQ1nA_x8BDN-18" target="IJeZ8tViUeQ1nA_x8BDN-16" edge="1">
          <mxGeometry relative="1" as="geometry" />
        </mxCell>
        <mxCell id="IJeZ8tViUeQ1nA_x8BDN-18" value="&lt;h1&gt;RavenDB&lt;/h1&gt;&lt;p&gt;For our internal data storing we use the NOSQL db RavenDB.&lt;/p&gt;" style="text;html=1;strokeColor=none;fillColor=none;spacing=5;spacingTop=-20;whiteSpace=wrap;overflow=hidden;rounded=0;" parent="1" vertex="1">
          <mxGeometry x="588.5" y="583.5" width="190" height="95" as="geometry" />
        </mxCell>
        <mxCell id="IJeZ8tViUeQ1nA_x8BDN-17" value="" style="shape=image;verticalLabelPosition=bottom;labelBackgroundColor=default;verticalAlign=top;aspect=fixed;imageAspect=0;image=https://images.g2crowd.com/uploads/product/image/social_landscape/social_landscape_30e9c819f3fc162460f4ecf69a391b94/ravendb.png;" parent="1" vertex="1">
          <mxGeometry x="698.5" y="595" width="80" height="42" as="geometry" />
        </mxCell>
        <mxCell id="IJeZ8tViUeQ1nA_x8BDN-21" style="edgeStyle=orthogonalEdgeStyle;rounded=0;orthogonalLoop=1;jettySize=auto;html=1;entryX=0;entryY=0.5;entryDx=0;entryDy=0;entryPerimeter=0;endArrow=none;endFill=0;dashed=1;" parent="1" source="IJeZ8tViUeQ1nA_x8BDN-20" target="IJeZ8tViUeQ1nA_x8BDN-16" edge="1">
          <mxGeometry relative="1" as="geometry" />
        </mxCell>
        <mxCell id="IJeZ8tViUeQ1nA_x8BDN-20" value="&lt;h1&gt;.NET 7&lt;/h1&gt;&lt;p&gt;Backend server that handles the large amount of important logic and process managing. Is responsible for:&lt;/p&gt;&lt;p style=&quot;&quot;&gt;&lt;font style=&quot;font-size: 11px;&quot;&gt;- &lt;/font&gt;&lt;font style=&quot;font-size: 10px;&quot;&gt;Exposing Data Security Trimmed&lt;/font&gt;&lt;/p&gt;&lt;p style=&quot;&quot;&gt;&lt;font style=&quot;font-size: 10px;&quot;&gt;- Tracking / Managing Python Pose Estimation Process&lt;/font&gt;&lt;/p&gt;" style="text;html=1;strokeColor=none;fillColor=none;spacing=5;spacingTop=-20;whiteSpace=wrap;overflow=hidden;rounded=0;" parent="1" vertex="1">
          <mxGeometry x="64.5" y="625" width="190" height="220" as="geometry" />
        </mxCell>
        <mxCell id="IJeZ8tViUeQ1nA_x8BDN-24" style="edgeStyle=orthogonalEdgeStyle;rounded=0;orthogonalLoop=1;jettySize=auto;html=1;entryX=1;entryY=0.92;entryDx=0;entryDy=0;entryPerimeter=0;exitX=0.5;exitY=0;exitDx=0;exitDy=0;" parent="1" source="IJeZ8tViUeQ1nA_x8BDN-22" target="IJeZ8tViUeQ1nA_x8BDN-16" edge="1">
          <mxGeometry relative="1" as="geometry">
            <Array as="points">
              <mxPoint x="539.5" y="671" />
            </Array>
          </mxGeometry>
        </mxCell>
        <mxCell id="IJeZ8tViUeQ1nA_x8BDN-25" value="Respons with Status updates" style="edgeLabel;html=1;align=center;verticalAlign=middle;resizable=0;points=[];" parent="IJeZ8tViUeQ1nA_x8BDN-24" vertex="1" connectable="0">
          <mxGeometry x="-0.5125" y="1" relative="1" as="geometry">
            <mxPoint x="1" y="24" as="offset" />
          </mxGeometry>
        </mxCell>
        <mxCell id="IJeZ8tViUeQ1nA_x8BDN-22" value="pose-estimate.py" style="shape=image;html=1;verticalAlign=top;verticalLabelPosition=bottom;labelBackgroundColor=#ffffff;imageAspect=0;aspect=fixed;image=https://cdn1.iconfinder.com/data/icons/DarkGlass_Reworked/128x128/mimetypes/source_py.png" parent="1" vertex="1">
          <mxGeometry x="514.5" y="795" width="50" height="50" as="geometry" />
        </mxCell>
        <mxCell id="IJeZ8tViUeQ1nA_x8BDN-30" style="edgeStyle=orthogonalEdgeStyle;rounded=0;orthogonalLoop=1;jettySize=auto;html=1;endArrow=none;endFill=0;dashed=1;" parent="1" edge="1">
          <mxGeometry relative="1" as="geometry">
            <mxPoint x="330" y="560" as="targetPoint" />
            <mxPoint x="224.5" y="552.4827586206895" as="sourcePoint" />
            <Array as="points">
              <mxPoint x="279.5" y="552" />
              <mxPoint x="279.5" y="560" />
              <mxPoint x="334.5" y="560" />
            </Array>
          </mxGeometry>
        </mxCell>
        <mxCell id="IJeZ8tViUeQ1nA_x8BDN-29" value="&lt;h1&gt;Response&lt;/h1&gt;&lt;p&gt;When something goes wrong we respond with ProblemDetails (New .NET 7 Feature)&lt;/p&gt;" style="text;html=1;strokeColor=none;fillColor=none;spacing=5;spacingTop=-20;whiteSpace=wrap;overflow=hidden;rounded=0;" parent="1" vertex="1">
          <mxGeometry x="56" y="500" width="160" height="105" as="geometry" />
        </mxCell>
        <mxCell id="K13fG8NS06_dGH0W_SFT-7" style="edgeStyle=orthogonalEdgeStyle;rounded=0;orthogonalLoop=1;jettySize=auto;html=1;entryX=1.002;entryY=0.486;entryDx=0;entryDy=0;entryPerimeter=0;" edge="1" parent="1" source="K13fG8NS06_dGH0W_SFT-2" target="IJeZ8tViUeQ1nA_x8BDN-7">
          <mxGeometry relative="1" as="geometry" />
        </mxCell>
        <mxCell id="K13fG8NS06_dGH0W_SFT-10" style="edgeStyle=orthogonalEdgeStyle;rounded=0;orthogonalLoop=1;jettySize=auto;html=1;entryX=0;entryY=0.5;entryDx=0;entryDy=0;entryPerimeter=0;" edge="1" parent="1" source="K13fG8NS06_dGH0W_SFT-2" target="K13fG8NS06_dGH0W_SFT-8">
          <mxGeometry relative="1" as="geometry" />
        </mxCell>
        <mxCell id="K13fG8NS06_dGH0W_SFT-11" value="Get user Claims" style="edgeLabel;html=1;align=center;verticalAlign=middle;resizable=0;points=[];" vertex="1" connectable="0" parent="K13fG8NS06_dGH0W_SFT-10">
          <mxGeometry x="-0.3141" y="1" relative="1" as="geometry">
            <mxPoint x="14" y="1" as="offset" />
          </mxGeometry>
        </mxCell>
        <mxCell id="K13fG8NS06_dGH0W_SFT-2" value=".NET 7 / &lt;b&gt;BffWeb&lt;/b&gt;" style="sketch=0;aspect=fixed;pointerEvents=1;shadow=0;dashed=0;html=1;strokeColor=none;labelPosition=center;verticalLabelPosition=bottom;verticalAlign=top;align=center;fillColor=#330066;shape=mxgraph.mscae.enterprise.application_server" vertex="1" parent="1">
          <mxGeometry x="400" y="320" width="43" height="50" as="geometry" />
        </mxCell>
        <mxCell id="K13fG8NS06_dGH0W_SFT-4" value="" style="sketch=0;pointerEvents=1;shadow=0;dashed=0;html=1;strokeColor=none;fillColor=#505050;labelPosition=center;verticalLabelPosition=bottom;verticalAlign=top;outlineConnect=0;align=center;shape=mxgraph.office.servers.tunnel_straight;" vertex="1" parent="1">
          <mxGeometry x="320" y="340" width="66" height="20" as="geometry" />
        </mxCell>
        <mxCell id="K13fG8NS06_dGH0W_SFT-6" value="SPA Proxy" style="text;html=1;strokeColor=none;fillColor=none;align=center;verticalAlign=middle;whiteSpace=wrap;rounded=0;" vertex="1" parent="1">
          <mxGeometry x="321" y="310" width="60" height="30" as="geometry" />
        </mxCell>
        <mxCell id="K13fG8NS06_dGH0W_SFT-8" value="Identity Server" style="sketch=0;aspect=fixed;pointerEvents=1;shadow=0;dashed=0;html=1;strokeColor=none;labelPosition=center;verticalLabelPosition=bottom;verticalAlign=top;align=center;fillColor=#330066;shape=mxgraph.mscae.enterprise.server_directory" vertex="1" parent="1">
          <mxGeometry x="570" y="320" width="36" height="50" as="geometry" />
        </mxCell>
        <mxCell id="K13fG8NS06_dGH0W_SFT-9" value="JWT Token" style="sketch=0;pointerEvents=1;shadow=0;dashed=0;html=1;strokeColor=none;fillColor=#9462c6;labelPosition=center;verticalLabelPosition=bottom;verticalAlign=top;outlineConnect=0;align=center;shape=mxgraph.office.security.token;" vertex="1" parent="1">
          <mxGeometry x="350" y="437.5" width="36" height="45" as="geometry" />
        </mxCell>
        <mxCell id="K13fG8NS06_dGH0W_SFT-12" value="User Claims" style="sketch=0;aspect=fixed;pointerEvents=1;shadow=0;dashed=0;html=1;strokeColor=none;labelPosition=center;verticalLabelPosition=bottom;verticalAlign=top;align=center;fillColor=#9462c6;shape=mxgraph.mscae.enterprise.key_permissions" vertex="1" parent="1">
          <mxGeometry x="451" y="442.5" width="20.8" height="40" as="geometry" />
        </mxCell>
        <mxCell id="K13fG8NS06_dGH0W_SFT-14" value="&lt;h1&gt;Duende (+ BFF)&lt;/h1&gt;&lt;p&gt;&lt;/p&gt;Makes integration of OpenID Connect and OAuth 2.0 Protocols easier.&lt;br&gt;&lt;br&gt;With help of BFF package we can offer scalabiltiy and adaptablity for the future." style="text;html=1;strokeColor=none;fillColor=none;spacing=5;spacingTop=-20;whiteSpace=wrap;overflow=hidden;rounded=0;" vertex="1" parent="1">
          <mxGeometry x="550" y="150" width="190" height="160" as="geometry" />
        </mxCell>
        <mxCell id="K13fG8NS06_dGH0W_SFT-18" value="" style="shape=image;verticalLabelPosition=bottom;labelBackgroundColor=default;verticalAlign=top;aspect=fixed;imageAspect=0;image=https://pbs.twimg.com/profile_images/1309117717987889162/zllztgki_400x400.png;" vertex="1" parent="1">
          <mxGeometry x="738.5" y="150" width="40" height="40" as="geometry" />
        </mxCell>
        <mxCell id="K13fG8NS06_dGH0W_SFT-20" value="" style="shape=image;verticalLabelPosition=bottom;labelBackgroundColor=default;verticalAlign=top;aspect=fixed;imageAspect=0;image=https://pbs.twimg.com/profile_images/1309117717987889162/zllztgki_400x400.png;" vertex="1" parent="1">
          <mxGeometry x="431" y="315" width="20" height="20" as="geometry" />
        </mxCell>
        <mxCell id="K13fG8NS06_dGH0W_SFT-21" value="" style="shape=image;verticalLabelPosition=bottom;labelBackgroundColor=default;verticalAlign=top;aspect=fixed;imageAspect=0;image=https://pbs.twimg.com/profile_images/1309117717987889162/zllztgki_400x400.png;" vertex="1" parent="1">
          <mxGeometry x="600" y="315" width="20" height="20" as="geometry" />
        </mxCell>
        <mxCell id="K13fG8NS06_dGH0W_SFT-22" value="" style="shape=image;verticalLabelPosition=bottom;labelBackgroundColor=default;verticalAlign=top;aspect=fixed;imageAspect=0;image=https://pbs.twimg.com/profile_images/1309117717987889162/zllztgki_400x400.png;" vertex="1" parent="1">
          <mxGeometry x="431" y="617" width="20" height="20" as="geometry" />
        </mxCell>
      </root>
    </mxGraphModel>
  </diagram>
</mxfile>
